<svg width="28" height="27" viewBox="0 0 28 27" fill="none" xmlns="http://www.w3.org/2000/svg">
<path d="M23.5765 17.0502C21.3792 13.8373 19.0099 10.3118 13.4711 11.7959C11.0022 12.4575 9.35899 13.7306 8.44746 15.6883C7.64005 17.4223 7.49494 19.4591 7.34672 21.399C7.16287 23.777 9.63523 25.4664 11.7935 24.4196C13.564 23.5604 15.9659 22.2685 19.8192 21.9914C21.3042 21.8846 21.4469 21.8926 21.8309 21.7897C23.8367 21.2522 24.8073 18.8464 23.5765 17.0502Z" fill="#FBDD7B"/>
<path d="M21.8311 21.7897C23.8368 21.2522 24.8074 18.8463 23.5765 17.0502C21.3792 13.8373 19.01 10.3118 13.4712 11.7959L16.3588 22.5725C19.1332 21.8291 20.9281 22.0317 21.8311 21.7897Z" fill="#FECB3E"/>
<path d="M16.5662 16.4037L15.4815 16.6943L15.1908 15.6096C15.0945 15.2501 14.725 15.0368 14.3655 15.1331C14.0061 15.2294 13.7927 15.5989 13.8891 15.9584L14.1797 17.0431L13.0949 17.3338C12.7355 17.4301 12.5222 17.7996 12.6185 18.1591C12.7148 18.5185 13.0843 18.7319 13.4437 18.6355L14.5285 18.3449L14.8192 19.4297C14.9155 19.7891 15.285 20.0024 15.6444 19.9061C16.0039 19.8098 16.2172 19.4403 16.1209 19.0809L15.8303 17.9961L16.915 17.7054C17.2745 17.6091 17.4878 17.2396 17.3915 16.8801C17.2952 16.5207 16.9257 16.3074 16.5662 16.4037Z" fill="#FFF8E0"/>
<path d="M16.1211 19.0809L15.8305 17.9961L16.9152 17.7054C17.2747 17.6091 17.488 17.2396 17.3917 16.8801C17.2954 16.5207 16.9259 16.3074 16.5664 16.4037L15.4817 16.6943L15.191 15.6096C15.0947 15.2501 14.7252 15.0368 14.3657 15.1331L15.6447 19.9061C16.0041 19.8098 16.2174 19.4403 16.1211 19.0809Z" fill="#FFE799"/>
<path d="M21.2767 6.21228C19.9607 6.56488 19.177 7.92234 19.5296 9.23826C19.8822 10.5542 21.2397 11.3379 22.5556 10.9853C23.8715 10.6327 24.6986 9.26363 24.346 7.9477C23.9934 6.63178 22.5926 5.85968 21.2767 6.21228Z" fill="#FECB3E"/>
<path d="M16.42 8.91634C17.9319 8.51124 18.7454 6.64494 18.237 4.74783C17.7287 2.85072 16.0911 1.6412 14.5792 2.0463C13.0674 2.45139 12.2539 4.3177 12.7622 6.21481C13.2705 8.11192 14.9082 9.32143 16.42 8.91634Z" fill="#FECB3E"/>
<path d="M9.47766 10.7766C10.9895 10.3715 11.803 8.5052 11.2947 6.60809C10.7863 4.71098 9.14867 3.50146 7.63683 3.90656C6.125 4.31165 5.3115 6.17796 5.81983 8.07507C6.32815 9.97218 7.96582 11.1817 9.47766 10.7766Z" fill="#FBDD7B"/>
<path d="M3.92014 10.8629C2.60422 11.2155 1.7771 12.5846 2.1297 13.9006C2.4823 15.2165 3.88315 15.9886 5.19907 15.636C6.515 15.2834 7.29872 13.9259 6.94612 12.61C6.59352 11.2941 5.23607 10.5103 3.92014 10.8629Z" fill="#FBDD7B"/>
</svg>
